<svg width="1076" height="636" viewBox="0 0 1076 636" fill="none" xmlns="http://www.w3.org/2000/svg">
<rect width="1076" height="636" fill="white"/>
<path d="M1005.69 62C1006.35 62.7379 1007.82 62.328 1008.81 62.4099C1032.09 64.1317 1053 83.3994 1058.33 105.865L1059.96 115.047V125.296C1059.23 126.526 1059.64 128.248 1059.47 129.724C1057.42 144.482 1042.01 166.455 1033.81 179.491C976.016 271.648 906.332 361.509 827.876 436.94C749.42 512.37 641.369 590.999 524.956 596.492C516.348 596.902 507.575 597.148 499.049 596.902C422.151 594.36 341.236 555.743 303.606 486.707C293.769 468.67 286.636 448.992 283.193 428.659C255.483 427.101 228.02 421.689 201.458 413.9C149.4 398.732 100.129 373.233 56.8429 340.766C37.9053 326.581 20.8532 315.431 17.9018 289.932C17.8199 288.948 17.6559 287.636 17.082 286.816V278.535C18.6397 269.844 20.8532 261.727 25.5261 254.184C42.3322 227.21 76.9283 221.552 103.326 238.032C114.64 245.083 125.625 253.118 136.939 260.251C183.996 289.686 228.43 311.495 284.915 316.251C287.784 316.497 290.899 317.398 292.457 314.365C294.014 311.331 295.49 305.1 296.884 301.492C300.737 291.49 305.246 281.733 310.083 272.222C369.683 152.927 478.8 44.4542 623.743 64.3777C684.327 72.7407 736.385 120.131 732.86 184.411C729.007 255.66 675.555 315.185 619.562 353.72C599.804 367.33 579.801 376.595 557.83 385.942C510.691 405.865 460.518 418.41 409.362 422.427C415.757 441.285 429.611 459.159 445.762 470.719C493.803 504.991 570.537 479.41 617.676 454.485C698.264 411.933 765.898 344.783 823.613 275.256C862.636 228.275 899.118 177.278 931.09 125.296C945.847 101.355 956.095 72.7407 985.69 64.2957L997.003 62.082H1005.61L1005.69 62ZM410.92 322.892C444.04 315.595 476.997 306.576 508.477 294.113C543.565 280.257 590.54 256.398 610.544 223.192C632.351 187.035 600.46 159.814 564.143 165.389C502.165 174.9 442.237 248.609 418.298 302.968C415.429 309.445 412.887 316.087 410.92 322.892Z" fill="#182541"/>
<path d="M17.8198 289.932H17V286.816C17.5739 287.636 17.6559 288.948 17.8198 289.932Z" fill="#182541"/>
<path d="M1008.89 62V62.4099C1007.91 62.4099 1006.43 62.7379 1005.78 62H1008.89Z" fill="#182541"/>
</svg>
